<svg width="36" height="36" viewBox="0 0 36 36" fill="none" xmlns="http://www.w3.org/2000/svg">
<path d="M15.64 10H22.36C24.92 10 27 12.08 27 14.64V21.36C27 22.5906 26.5111 23.7708 25.641 24.641C24.7708 25.5111 23.5906 26 22.36 26H15.64C13.08 26 11 23.92 11 21.36V14.64C11 13.4094 11.4889 12.2292 12.359 11.359C13.2292 10.4889 14.4094 10 15.64 10ZM15.48 11.6C14.7162 11.6 13.9836 11.9034 13.4435 12.4435C12.9034 12.9836 12.6 13.7162 12.6 14.48V21.52C12.6 23.112 13.888 24.4 15.48 24.4H22.52C23.2838 24.4 24.0164 24.0966 24.5565 23.5565C25.0966 23.0164 25.4 22.2838 25.4 21.52V14.48C25.4 12.888 24.112 11.6 22.52 11.6H15.48ZM23.2 12.8C23.4652 12.8 23.7196 12.9054 23.9071 13.0929C24.0946 13.2804 24.2 13.5348 24.2 13.8C24.2 14.0652 24.0946 14.3196 23.9071 14.5071C23.7196 14.6946 23.4652 14.8 23.2 14.8C22.9348 14.8 22.6804 14.6946 22.4929 14.5071C22.3054 14.3196 22.2 14.0652 22.2 13.8C22.2 13.5348 22.3054 13.2804 22.4929 13.0929C22.6804 12.9054 22.9348 12.8 23.2 12.8ZM19 14C20.0609 14 21.0783 14.4214 21.8284 15.1716C22.5786 15.9217 23 16.9391 23 18C23 19.0609 22.5786 20.0783 21.8284 20.8284C21.0783 21.5786 20.0609 22 19 22C17.9391 22 16.9217 21.5786 16.1716 20.8284C15.4214 20.0783 15 19.0609 15 18C15 16.9391 15.4214 15.9217 16.1716 15.1716C16.9217 14.4214 17.9391 14 19 14ZM19 15.6C18.3635 15.6 17.753 15.8529 17.3029 16.3029C16.8529 16.753 16.6 17.3635 16.6 18C16.6 18.6365 16.8529 19.247 17.3029 19.6971C17.753 20.1471 18.3635 20.4 19 20.4C19.6365 20.4 20.247 20.1471 20.6971 19.6971C21.1471 19.247 21.4 18.6365 21.4 18C21.4 17.3635 21.1471 16.753 20.6971 16.3029C20.247 15.8529 19.6365 15.6 19 15.6Z" fill="url(#paint0_linear_1_127)"/>
<rect x="0.5" y="0.5" width="35" height="35" rx="17.5" stroke="url(#paint1_linear_1_127)"/>
<defs>
<linearGradient id="paint0_linear_1_127" x1="11" y1="10" x2="25.8" y2="26.8" gradientUnits="userSpaceOnUse">
<stop stop-color="#B184E0"/>
<stop offset="1" stop-color="#5F90F5"/>
</linearGradient>
<linearGradient id="paint1_linear_1_127" x1="0" y1="0" x2="43.4547" y2="18.237" gradientUnits="userSpaceOnUse">
<stop stop-color="#C381DB"/>
<stop offset="1" stop-color="#4E92F9"/>
</linearGradient>
</defs>
</svg>
